<?xml version="1.0" encoding="utf-8" ?>
<svg xmlns="http://www.w3.org/2000/svg" xmlns:xlink="http://www.w3.org/1999/xlink" width="508" height="475">
	<path fill="#E94F37" transform="scale(0.661458 0.61849)" d="M-0 652.954L0 -0L768 0L768 653.437L768 768L-0 768L0 652.954Z"/>
	<path fill="#F6F7EB" transform="scale(0.661458 0.61849)" d="M287.786 380.438C289.415 379.907 292.516 380.048 294.002 380.918C295.034 381.523 295.263 382.155 295.545 383.25L295.123 383.924L293.433 384.246C290.493 383.872 287.978 383.257 284.99 383.679L284.326 383.776C285.418 382.532 286.467 381.441 287.786 380.438Z"/>
	<path fill="#F6F7EB" transform="scale(0.661458 0.61849)" d="M457.71 400.688C458.928 400.306 460.368 400.322 461.625 400.506C463.768 400.821 466.456 402.367 467.605 404.25C468.283 405.359 468.346 405.837 468.053 407.062C466.724 408.125 465.417 408.016 463.786 408.295C462.126 408.58 461.42 408.705 460.455 410.062C459.972 411.594 459.263 414.783 458.088 415.885C457.576 416.365 456.844 416.194 456.188 416.216C455.569 415.161 456.046 413.071 456.128 411.874C456.34 408.78 456.007 405.418 456.483 402.383C456.65 401.319 456.877 401.306 457.71 400.688Z"/>
	<path fill="#F6F7EB" transform="scale(0.661458 0.61849)" d="M486.61 387.789C487.68 387.73 488.858 387.577 489.9 387.882C491.48 388.345 492.424 389.19 493.1 390.666C493.297 391.097 493.806 392.428 494.25 392.594C495.672 393.125 496.777 391.93 498.365 393.063C499.241 393.687 499.542 394.713 499.699 395.715C499.847 396.656 499.977 396.554 499.373 397.352C496.678 397.203 494.09 396.563 491.472 395.953C489.556 395.376 487.85 394.237 486 393.479C485.705 393.768 485.553 393.947 485.231 394.17C483.125 395.624 478.854 394.327 476.525 393.767C479.546 391.178 482.976 389.35 486.61 387.789Z"/>
	<path fill="#F6F7EB" transform="scale(0.661458 0.61849)" d="M309.786 389.32C313.569 389.217 316.819 389.067 320.112 391.287C322.867 393.145 323.447 395.236 324.111 398.263L314.722 401.876C309.535 404.521 307.031 399.746 302.159 398.887L301.671 398.809C303.932 394.683 305.273 391.394 309.786 389.32Z"/>
	<path fill="#F6F7EB" transform="scale(0.661458 0.61849)" d="M146.397 531.063L146.75 530.879C149.364 529.462 149.821 527.257 151.438 524.996C153.714 521.813 157.924 520.392 161.697 521.543C165.098 522.581 166.853 525.613 168.545 528.47L168.934 528.161C171.344 526.274 173.385 525.438 176.487 525.75C178.128 525.915 179.432 526.722 180.759 527.625C181.393 528.057 181.298 528.101 182.067 528.066C183.412 528.003 185.002 528.654 186.285 529.037C187.278 530.039 188.253 530.989 189.049 532.158C181.731 532.375 173.916 533.186 166.645 532.598C164.793 532.448 162.943 532.197 161.152 531.685C160.484 531.494 157.648 530.197 157.206 530.271C156.516 530.384 155.338 532.678 154.312 532.881C153.417 533.058 152.074 532.914 151.138 532.927C148.954 533.26 146.594 533.052 144.375 533.241C142.803 533.375 141.271 533.841 139.688 534.016L139.22 533.438L140.088 532.335C142.012 531.29 144.252 531.278 146.397 531.063Z"/>
	<path fill="#F6F7EB" transform="scale(0.661458 0.61849)" d="M453.966 369.822C461.519 372.536 474.878 373.949 478.727 382.092C479.278 383.258 479.745 384.422 479.279 385.676C478.366 388.135 476.019 389.828 473.681 390.832C469.827 392.488 465.306 392.157 461.201 392.143C460.04 392.14 458.596 391.959 457.464 392.154C458.469 390.222 459.684 388.203 460.195 386.076C461.699 379.804 457.078 374.727 453.966 369.822Z"/>
	<path fill="#F6F7EB" transform="scale(0.661458 0.61849)" d="M115.145 541.948C116.681 541.998 118.177 542.11 119.625 542.676C122.501 543.801 125.184 547.011 126.385 549.82L127.125 551.323C127.552 550.968 127.401 551.163 127.676 550.601L127.875 550.171L128.625 550.213C129.589 550.42 131.032 551.423 131.96 551.897C133.948 552.912 138.292 554.106 139.472 555.75L139.312 556.561C138.848 556.843 138.844 556.876 138.246 557.062C136.358 557.65 129.912 557.115 128.234 556.035L127.875 555.777C127.675 556.132 127.44 556.557 127.082 556.78C125.525 557.748 121.781 556.782 120.107 556.248L115.775 555.024L112.565 557.603C108.325 558.334 103.153 558.31 98.8815 557.774L98.25 557.687C96.8423 557.506 95.9976 557.243 94.7783 556.493L91.6344 553.814C90.2317 554.51 88.909 556.338 87.8151 557.491C82.9717 557.769 78.2562 558.22 73.4023 557.859C74.6422 556.331 76.1462 554.288 77.9208 553.383C79.46 552.599 80.8175 553.36 82.3592 553.816C83.7085 550.306 85.0031 546.717 88.2124 544.456C90.4304 542.894 93.5886 542.58 96.1982 543.064C100.344 543.834 102.964 546.099 105.211 549.521L105.475 549.933L107.736 546.172C109.608 543.312 112.003 542.629 115.145 541.948Z"/>
	<path fill="#F6F7EB" transform="scale(0.661458 0.61849)" d="M251.391 281.013C244.151 281.565 232.27 282.342 226.383 277.427C224.384 275.757 222.913 272.994 222.755 270.375C222.542 266.856 223.279 263.451 225.626 260.717C223.95 259.893 222.096 259.457 220.365 258.751C213.232 255.839 207.969 251.903 205.406 244.312C204.848 242.659 204.551 240.971 204.303 239.25L204.207 238.623C202.537 226.577 207.154 213.733 214.49 204.304C224.148 191.889 240.184 181.985 255.97 180.105C261.349 179.464 267.45 179.711 272.816 180.518L272.923 180.071C274.493 173.851 278.948 167.291 284.547 164.028C288.333 161.821 292.636 161.529 296.891 161.26L296.72 160.824C293.915 153.488 295.063 143.625 298.265 136.575C303.905 124.161 316.909 114.887 329.414 110.258C345.428 104.331 363.878 104.412 379.457 111.604C392.338 117.55 403.513 126.79 411.33 138.659C412.684 140.716 413.795 142.845 414.907 145.038C415.461 146.13 416.18 147.843 417.028 148.702C415.879 142.63 413.106 138.508 409.541 133.575C409.131 133.008 407.722 131.462 407.569 130.87C407.553 130.806 408.025 130.126 408.1 130.026C409.385 128.305 411.146 126.688 412.623 125.118C422.231 114.903 434.806 107.505 449.038 106.449C464.377 105.311 480.218 110.514 491.861 120.68C501.928 129.469 509.954 142.196 510.729 155.812C510.987 160.361 511.116 165.364 510.132 169.835C521.226 162.868 537.657 160.221 550.424 163.062C564.917 166.288 578.131 176.101 585.891 188.668C591.971 198.513 594.299 211.344 591.596 222.654C588.874 234.045 582.29 245.394 572.157 251.623C563.489 256.952 553.188 258.257 543.184 257.572C540.678 257.4 537.999 256.582 535.53 256.671C538.562 258.248 541.951 258.916 545.058 260.356C558.172 266.432 567.845 276.066 572.182 290.062C576.224 303.108 574.356 317.413 567.893 329.374C563.168 338.119 555.132 344.266 545.66 347.082C538.83 349.113 531.42 348.745 524.438 347.796C523.685 347.694 521.643 347.257 521.272 347.764C518.227 351.918 512.665 353.837 507.763 354.554C495.145 356.398 483.521 350.065 471.188 348.58L470.908 349.127L471.071 349.41C472.398 351.827 472.284 354.425 471.435 356.978C470.374 360.167 467.862 363.24 464.751 364.61C460.461 366.499 454.641 366.492 450.062 365.991C451.219 367.213 453.024 368.487 453.966 369.822C457.078 374.727 461.699 379.804 460.195 386.076C459.684 388.203 458.469 390.222 457.464 392.154C456.133 393.524 455.925 393.685 455.618 395.548C456.491 396.971 457.391 397.951 457.385 399.663C456.052 401.119 454.63 401.711 452.862 402.466C451.921 405.14 451.687 408.012 449.062 409.469C445.438 408.695 442.379 405.84 438.925 404.509L439.506 412.5C439.589 413.758 439.474 415.045 440.062 416.194C440.781 416.081 442.03 415.582 442.688 415.583C443.687 415.585 445.645 417.041 446.48 417.664C448.619 419.259 450.541 421.432 452.446 423.305L443.25 423.77C442.256 423.26 442.161 422.329 441.188 422.077C441.05 422.665 440.978 423.131 440.936 423.744C439.831 424.253 434.485 424.452 433.363 423.946C432.619 423.611 431.924 422.545 431.438 421.905C430.731 422.341 430.651 422.573 430.201 423.249C429.363 424.506 428.703 425.232 427.136 425.54C424.344 426.087 421.126 425.644 418.438 426.48C422.921 430.884 428.063 434.461 433.067 438.227L449.683 451.021L499.294 489.133L523.125 506.276L534.217 513.452C536.4 513.992 538.916 516.175 540.878 517.394L568.447 535.21L604.779 558.252L644.446 584.436L696.491 616.978L745.354 646.874C748.723 648.759 752.187 651.485 755.686 652.987C756.681 653.415 758.204 653.28 759.295 653.297L768 653.437L768 768L-0 768L0 652.954L17.2839 652.829C19.6404 650.816 22.9061 649.156 25.5963 647.559L47.0258 635.268L106.875 596.289L150.239 564.616L167.044 552.491L209.333 519.948L313.47 440.95L327.212 429.001C324.847 428.939 320.175 430.639 318.188 429.313L318.314 428.625C319.463 427.163 320.665 426.113 322.535 425.713C325.376 425.105 327.738 425.518 330.159 427.022C333.369 425.595 336.35 422.25 339.049 419.988C344.92 415.066 350.881 410.336 356.389 404.995C353.913 404.143 351.507 403.288 349.219 401.993C343.902 398.982 338.203 393.313 336.595 387.279L336.495 386.887C329.673 387.755 323.279 388.343 316.578 386.247C309.372 383.993 303.2 378.017 299.822 371.351C296.406 364.609 296.403 355.24 298.764 348.146C301.944 338.593 309.668 331.163 318.207 326.223C320.316 325.003 322.624 324.146 324.809 323.069C316.328 322.024 308.436 321.316 301.333 315.961C296.953 312.659 293.495 307.752 292.82 302.231C291.069 302.18 288.839 303.584 287.062 304.053C284.322 304.777 281.262 305.134 278.435 305.125C270.751 305.102 261.516 302.374 256.1 296.644C251.854 292.151 251.314 286.927 251.391 281.013Z"/>
	<path fill="#393E41" transform="scale(0.661458 0.61849)" d="M385.264 456.188C385.449 456.454 385.433 456.389 385.525 456.805C386.373 460.648 385.719 465.853 385.646 469.85C385.493 478.16 385.454 487.299 383.327 495.352C381.392 502.677 377.086 510.259 372.981 516.562L372.667 516.656C372.704 515.363 373.443 514.062 373.812 512.812C374.482 510.542 374.897 508.138 375.423 505.828L381.818 474.562L383.779 463.182C384.11 461.076 384.197 458.014 385.264 456.188Z"/>
	<path fill="#393E41" transform="scale(0.661458 0.61849)" d="M251.391 281.013C258.6 280.197 265.821 279.057 272.436 275.889C276.045 283.276 281.743 288.986 289.688 291.616C293.1 292.746 296.672 293.353 300.215 293.907C297.128 296.388 294.869 298.817 292.82 302.231C291.069 302.18 288.839 303.584 287.062 304.053C284.322 304.777 281.262 305.134 278.435 305.125C270.751 305.102 261.516 302.374 256.1 296.644C251.854 292.151 251.314 286.927 251.391 281.013Z"/>
	<path fill="#393E41" transform="scale(0.661458 0.61849)" d="M455.618 395.548C453.623 393.333 451.375 391.451 448.592 390.291C444.458 388.569 439.063 389.12 435 390.804C431.172 392.391 427.094 395.584 425.247 399.396C424.708 400.508 424.602 401.693 424.154 402.828C423.456 402.829 423.712 402.875 423.098 402.718C421.699 402.361 420.332 402.034 418.875 402.041C414.784 402.06 413.432 404.585 410.805 407.237C410.903 404.54 412.65 400.835 413.515 398.173L416.953 386.369C417.656 386.014 417.389 386.093 418.081 385.933C420.093 385.469 422.162 385.023 424.048 384.154C427.498 382.565 430.848 379.035 432.123 375.484C434.088 370.01 432.079 364.222 429.743 359.238C436.458 361.643 443.071 364.473 450.062 365.991C451.219 367.213 453.024 368.487 453.966 369.822C457.078 374.727 461.699 379.804 460.195 386.076C459.684 388.203 458.469 390.222 457.464 392.154C456.133 393.524 455.925 393.685 455.618 395.548Z"/>
	<path fill="#E94F37" transform="scale(0.661458 0.61849)" d="M455.917 188.514C454.186 188.624 452.609 188.906 450.925 189.317C449.314 187.694 448.024 185.543 446.603 183.734C443.066 179.233 439.01 175.444 434.155 172.391C431.992 171.031 429.771 169.707 427.453 168.627C425.634 167.78 422.97 167.071 421.438 165.847L425.115 166.139C432.736 167.345 440.533 171.543 445.177 177.785C447.211 180.518 448.774 183.599 450.768 186.375C451.933 186.928 453.351 186.085 454.564 185.667C466.971 181.161 482.776 183.535 494.538 188.974C507.366 194.906 517.52 205.628 522.323 218.933C524.928 226.15 525.927 234.513 525.187 242.117C522.364 235.252 517.735 228.716 510.698 225.685C508.177 224.599 505.73 223.987 503.038 223.481C498.804 210.302 491.746 199.81 479.145 193.33C471.795 189.551 464.159 187.992 455.917 188.514Z"/>
	<path fill="#393E41" transform="scale(0.661458 0.61849)" d="M381.549 292.901C386.494 292.468 391.354 292.021 396.044 290.27C397.198 289.839 399.966 287.586 400.802 287.74C403.87 288.304 407.036 288.394 410.147 288.514C418.807 288.849 426.205 288.036 433.469 282.938C436.933 280.506 438.465 277.662 441.043 274.524C449.201 282.508 458.339 289.293 469.617 292.162C475.925 293.767 482.822 294.099 489.311 294.033C496.691 293.959 503.118 292.457 509.317 288.354C514.001 297.106 518.552 305.318 515.455 315.563C513.62 321.631 509.525 325.706 504.028 328.616C500.989 330.226 497.384 331.524 493.941 331.695C491.487 337.952 488.946 341.162 482.625 343.904C478.905 345.518 473.941 346.89 469.875 346.754C464.833 346.586 459.939 345.385 454.822 345.387C447.492 345.391 439.78 346.491 432.575 347.826L432.568 347.277C432.437 341.041 430.013 334.083 425.512 329.648C421.935 326.124 414.649 323.459 409.688 323.592C409.688 322.865 409.561 323.182 409.943 322.734C411.615 320.766 411.467 318.584 411.188 316.149C410.605 311.075 407.721 306.647 403.735 303.549C395.323 297.012 382.398 295.45 372.18 297.019C363.112 298.411 354.608 303.72 348.33 310.243L355.995 294.635L357.953 289.099C364.914 292.33 374.004 292.911 381.549 292.901Z"/>
	<defs>
		<linearGradient id="gradient_0" gradientUnits="userSpaceOnUse" x1="363.30164" y1="290.20648" x2="365.16888" y2="300.62286">
			<stop offset="0" stop-color="#775B82"/>
			<stop offset="1" stop-color="#887D9E"/>
		</linearGradient>
	</defs>
	<path fill="url(#gradient_0)" transform="scale(0.661458 0.61849)" d="M355.995 294.635L357.953 289.099C364.914 292.33 374.004 292.911 381.549 292.901L378.476 293.338C377.564 293.466 376.979 293.766 376.14 294.102C374.159 294.894 371.888 295.315 369.844 295.992C363.424 298.118 357.648 301.141 352.227 305.178L356.791 294.953L356.316 294.816L355.995 294.635Z"/>
	<path fill="#393E41" transform="scale(0.661458 0.61849)" d="M39.3716 652.539C39.8523 652.775 39.8887 652.823 40.5 652.946C41.52 653.15 42.9332 652.975 43.9848 652.975L52.0013 652.954C60.5618 652.946 69.3971 653.477 77.9269 652.879C79.9982 652.734 82.1559 652.159 84.151 651.581C92.8678 649.054 100.9 645.175 108.937 641.041C128.654 630.898 146.481 618.162 165.046 606.15C179.191 596.998 193.965 588.429 207.38 578.227L231.398 559.084C235.022 556.123 238.536 552.434 242.543 550.054C239.148 554.856 234.694 559.123 230.623 563.359C222.466 571.849 214.192 580.427 204.936 587.725C193.47 596.764 180.674 604.197 168.375 612.034L125.171 638.641C116.207 643.821 107.267 649.062 97.6614 652.972L113.705 652.397C115.327 652.377 117.992 652.804 119.469 652.451C119.7 652.396 120.609 651.558 120.812 651.401L126.031 647.645L153.398 630.338L188.392 607.752L211.495 592.456L259.195 563.742C257.234 566.668 254.663 569.089 252.305 571.688L242.804 582.474L194.031 634.74C188.099 640.591 180.87 645.617 175.528 651.962L175.866 651.913C178.517 650.932 181.082 648.636 183.404 647.05L203.029 633.068C223.734 617.269 245.324 601.709 262.719 582.161C270.332 573.606 277.525 564.277 283.972 554.812L290.946 543.802C288.26 553.581 286.612 563.482 284.696 573.423L280.904 591.073L279.21 599.59C278.91 601.218 278.731 603.149 278.11 604.688C276.581 608.477 272.67 612.16 269.995 615.241C258.591 628.374 246.616 640.565 233.82 652.342L245.054 652.314L267.299 628.985C279.017 616.52 290.143 603.113 299.805 588.985L327.487 544.06L335.522 530.177C337.246 527.166 338.739 524.184 340.795 521.371C330.505 554.222 322.793 587.862 309.76 619.809C305.361 630.594 299.851 640.822 294.562 651.179L295.117 651.562C297.244 650.123 298.742 647.771 300.33 645.767L306.282 638.721C320.402 622.281 335.491 606.05 348.056 588.365C351.026 584.186 353.677 579.79 356.27 575.371C357.613 573.081 358.84 570.309 360.553 568.312L360.74 568.688L326.836 652.183L340.893 652.18C343.671 650.574 385.07 548.858 389.6 538.107L394.27 526.679C395.321 524.041 396.177 521.302 397.658 518.864L398.489 568.325C398.342 580.278 396.978 592.287 395.357 604.124C393.173 620.069 390.282 636.112 385.551 651.515L391.118 651.305C392.748 645.647 395.516 640.2 397.85 634.8L407.816 612.977C410.493 607.285 413.156 601.427 416.324 595.991C419.919 601.091 424.032 605.718 427.873 610.621C434.529 619.119 440.381 627.78 445.528 637.278C445.635 635.912 445.256 634.388 445.052 633.033L443.691 624.218L441.097 602.003L435.687 537.375L433.334 513.971C434.577 515.096 435.926 519.487 436.705 521.128L441.788 530.819L463.119 569.27L472.719 586.951C472.517 583.626 471.265 580.194 470.345 576.996L466.444 562.704L456.08 516.452L461.078 523.473L471.813 535.868L484.524 550.584L501.337 568.561L523.104 593.553L546.319 618.263L556.284 630.155L528.582 572.467C539.363 586.532 553.794 597.466 566.928 609.246C573.386 615.039 579.385 621.519 585.986 627.087C584.639 624.424 582.357 621.752 580.533 619.368L570.253 606.175L541.115 571.276L516.56 545.754C507.628 535.838 499.599 524.995 491.575 514.337C485.922 506.828 479.859 498.959 475.874 490.408L485.299 500.438C496.187 511.69 508.648 522.405 521.062 531.959L541.893 547.022L565.994 566.025C577.731 575.773 588.419 586.694 599.532 597.125L635.859 629.021L656.677 645.931L662.011 650.446C662.231 650.635 663.168 651.585 663.426 651.659C665.412 652.233 669.272 651.756 671.459 651.792L534.217 513.452C536.4 513.992 538.916 516.175 540.878 517.394L568.447 535.21L604.779 558.252L644.446 584.436L696.491 616.978L745.354 646.874C748.723 648.759 752.187 651.485 755.686 652.987C756.681 653.415 758.204 653.28 759.295 653.297L768 653.437L768 768L-0 768L0 652.954L17.2839 652.829C19.4697 653.189 21.9081 652.969 24.131 652.945C28.8554 652.894 32.8181 652.979 37.3722 651.473L76.4725 630.888L116.476 610.43L133.174 602.398C135.66 601.213 138.134 599.67 140.729 598.786C139.254 600.465 137.129 601.572 135.238 602.75L120.335 611.173L77.7345 633.72L50.1366 648.367C46.6697 650.026 43.041 651.405 39.3716 652.539Z"/>
</svg>
